<?xml version="1.0" standalone="no"?>
<!DOCTYPE svg PUBLIC "-//W3C//DTD SVG 20010904//EN"
 "http://www.w3.org/TR/2001/REC-SVG-20010904/DTD/svg10.dtd">
<svg version="1.0" xmlns="http://www.w3.org/2000/svg"
 width="725.000000pt" height="725.000000pt" viewBox="0 0 725.000000 725.000000"
 preserveAspectRatio="xMidYMid meet">
<metadata>
Created by potrace 1.14, written by Peter Selinger 2001-2017
</metadata>
<g transform="translate(0.000000,725.000000) scale(0.100000,-0.100000)"
fill="#000000" stroke="none">
<path d="M3398 7245 c-2 -1 -39 -5 -83 -9 -255 -19 -559 -82 -814 -166 -162
-54 -223 -76 -249 -89 -9 -5 -28 -13 -42 -19 -67 -27 -295 -139 -375 -184 -82
-47 -353 -222 -365 -237 -3 -3 -23 -19 -45 -35 -161 -119 -436 -382 -588 -565
-475 -571 -759 -1265 -824 -2011 -14 -161 -6 -699 11 -729 2 -3 6 -33 10 -66
3 -33 8 -69 10 -80 2 -11 11 -60 21 -110 98 -530 338 -1073 664 -1500 165
-216 403 -464 601 -623 63 -52 123 -100 133 -108 10 -8 78 -55 150 -103 316
-211 683 -380 1037 -477 71 -19 139 -37 152 -40 93 -20 273 -53 323 -59 33 -4
67 -9 76 -10 104 -19 572 -27 734 -12 363 32 737 123 1065 257 129 54 367 170
411 201 15 10 30 19 33 19 5 0 65 37 176 109 60 39 183 126 215 152 11 10 56
46 100 80 91 72 379 356 446 439 24 30 46 57 50 60 3 3 42 52 86 110 146 194
267 392 372 613 82 171 101 213 101 222 0 4 7 21 14 38 60 131 167 516 191
687 3 25 8 52 10 60 2 8 7 35 10 60 3 25 8 61 10 80 26 189 26 729 -1 864 -2
11 -7 41 -10 66 -9 73 -44 263 -63 340 -42 170 -86 309 -138 445 -46 119 -152
353 -175 387 -10 14 -18 29 -18 33 0 13 -96 174 -176 295 -167 252 -432 552
-667 754 -307 263 -705 497 -1097 643 -141 53 -413 130 -520 148 -19 3 -42 8
-50 10 -8 2 -35 7 -60 10 -25 4 -63 10 -85 15 -22 4 -74 11 -115 15 -41 4 -84
9 -95 12 -22 5 -551 13 -557 8z"/>
</g>
</svg>
