<?xml version="1.0" encoding="UTF-8" standalone="no"?>
<svg
   xmlns:dc="http://purl.org/dc/elements/1.1/"
   xmlns:cc="http://creativecommons.org/ns#"
   xmlns:rdf="http://www.w3.org/1999/02/22-rdf-syntax-ns#"
   xmlns:svg="http://www.w3.org/2000/svg"
   xmlns="http://www.w3.org/2000/svg"
   xmlns:sodipodi="http://sodipodi.sourceforge.net/DTD/sodipodi-0.dtd"
   xmlns:inkscape="http://www.inkscape.org/namespaces/inkscape"
   width="56.900902mm"
   height="57.18438mm"
   viewBox="0 0 56.900902 57.18438"
   version="1.1"
   id="svg2829"
   inkscape:version="1.0.2-2 (e86c870879, 2021-01-15)"
   sodipodi:docname="lock.svg">
  <defs
     id="defs2823" />
  <sodipodi:namedview
     id="base"
     pagecolor="#ffffff"
     bordercolor="#666666"
     borderopacity="1.0"
     inkscape:pageopacity="0.0"
     inkscape:pageshadow="2"
     inkscape:zoom="1.4"
     inkscape:cx="350.67273"
     inkscape:cy="285.16923"
     inkscape:document-units="mm"
     inkscape:current-layer="layer1"
     inkscape:document-rotation="0"
     showgrid="false"
     fit-margin-top="0"
     fit-margin-left="0"
     fit-margin-right="0"
     fit-margin-bottom="0"
     inkscape:window-width="2095"
     inkscape:window-height="1198"
     inkscape:window-x="705"
     inkscape:window-y="314"
     inkscape:window-maximized="0" />
  <metadata
     id="metadata2826">
    <rdf:RDF>
      <cc:Work
         rdf:about="">
        <dc:format>image/svg+xml</dc:format>
        <dc:type
           rdf:resource="http://purl.org/dc/dcmitype/StillImage" />
        <dc:title></dc:title>
      </cc:Work>
    </rdf:RDF>
  </metadata>
  <g
     inkscape:label="Layer 1"
     inkscape:groupmode="layer"
     id="layer1"
     transform="translate(-34.057291,-89.525439)">
    <g
       id="g875"
       transform="matrix(3.0824409,0,0,3.0824409,-269.66423,-350.07915)">
      <rect
         style="fill:none;fill-opacity:1;stroke:#ffffff;stroke-width:0.693003;stroke-linecap:round;stroke-linejoin:round;stroke-miterlimit:4;stroke-dasharray:none;stroke-opacity:1"
         id="rect5816"
         width="12.375668"
         height="10.605011"
         x="101.57481"
         y="150.21576"
         ry="1.1128715" />
      <path
         id="path5818"
         style="fill:none;fill-opacity:1;stroke:#ffffff;stroke-width:0.693003;stroke-linecap:round;stroke-linejoin:round;stroke-miterlimit:4;stroke-dasharray:none;stroke-opacity:1"
         d="m 107.77933,153.46579 a 1.4039414,1.4039408 0 0 0 -0.0426,3.6e-4 1.4039414,1.4039408 0 0 0 -1.37794,1.4209 1.4039414,1.4039408 0 0 0 0.56098,1.10515 h -0.0193 v 2.52283 h 1.72413 v -2.52283 h -0.019 a 1.4039414,1.4039408 0 0 0 0.56099,-1.12233 l -3.6e-4,-0.0347 a 1.4039414,1.4039408 0 0 0 -1.3869,-1.36935 z" />
      <path
         id="path5820"
         style="fill:none;fill-opacity:1;stroke:#ffffff;stroke-width:0.693;stroke-linecap:square;stroke-linejoin:round;stroke-miterlimit:4;stroke-dasharray:none;stroke-opacity:1"
         d="m 112.6978,149.51794 v -2.10983 c -0.0164,-2.61974 -2.35549,-4.44587 -4.93425,-4.44587 -2.57876,0 -4.96533,1.82613 -4.93425,4.44587 0,2.12653 0,2.12653 0,2.12653"
         sodipodi:nodetypes="cczcc" />
      <path
         id="path5822"
         style="fill:none;fill-opacity:1;stroke:#ffffff;stroke-width:0.693003;stroke-linecap:round;stroke-linejoin:round;stroke-miterlimit:4;stroke-dasharray:none;stroke-opacity:1"
         d="m 107.76309,144.78937 c -1.46513,0 -2.82105,1.03751 -2.80339,2.52592 -0.002,1.59044 0,1.59731 0,1.59731 h 5.60679 v -1.59731 c -0.009,-1.48841 -1.33827,-2.52592 -2.8034,-2.52592 z"
         sodipodi:nodetypes="zccccz" />
    </g>
  </g>
</svg>
