<svg width="24" height="24" version="1.1" viewBox="0 0 6.35 6.3499" xmlns="http://www.w3.org/2000/svg" xmlns:xlink="http://www.w3.org/1999/xlink">
 <path d="m3.175-4.9975e-5a3.1749 3.1749 0 0 0-3.175 3.175 3.1749 3.1749 0 0 0 3.175 3.175 3.1749 3.1749 0 0 0 3.175-3.175 3.1749 3.1749 0 0 0-3.175-3.175zm0.54105 0.339a0.96901 0.96901 0 0 1 0.96893 0.96893 0.96901 0.96901 0 0 1-0.96893 0.96893 0.96901 0.96901 0 0 1-0.6966-0.29559l-1.0444 0.96273a0.54205 0.54205 0 0 1 0.056844 0.24185 0.54205 0.54205 0 0 1-0.057361 0.24185l1.9487 1.126a0.71421 0.71421 0 0 1 0.58963-0.31213 0.71421 0.71421 0 0 1 0.71417 0.71417 0.71421 0.71421 0 0 1-0.71417 0.71417 0.71421 0.71421 0 0 1-0.71417-0.71417 0.71421 0.71421 0 0 1 0.039274-0.23203l-1.9885-1.1322a0.54205 0.54205 0 0 1-0.35967 0.13643 0.54205 0.54205 0 0 1-0.54209-0.54209 0.54205 0.54205 0 0 1 0.54209-0.54209 0.54205 0.54205 0 0 1 0.35553 0.13281l1.0563-0.94465a0.96901 0.96901 0 0 1-0.15451-0.524 0.96901 0.96901 0 0 1 0.96893-0.96893z" fill="#38fcd4" stroke-width=".99986"/>
</svg>
