<svg width="24" height="24" version="1.1" viewBox="0 0 6.35 6.3499" xmlns="http://www.w3.org/2000/svg" xmlns:xlink="http://www.w3.org/1999/xlink">
 <path d="m3.175-1.1151e-4a3.175 3.175 0 0 0-3.1751 3.1751 3.175 3.175 0 0 0 3.1751 3.1751 3.175 3.175 0 0 0 3.1751-3.1751 3.175 3.175 0 0 0-3.1751-3.1751zm0.54106 0.339a0.96903 0.96903 0 0 1 0.96895 0.96895 0.96903 0.96903 0 0 1-0.96895 0.96895 0.96903 0.96903 0 0 1-0.69661-0.29559l-1.0444 0.96275a0.54206 0.54206 0 0 1 0.056845 0.24185 0.54206 0.54206 0 0 1-0.057362 0.24185l1.9488 1.126a0.71422 0.71422 0 0 1 0.58964-0.31213 0.71422 0.71422 0 0 1 0.71418 0.71418 0.71422 0.71422 0 0 1-0.71418 0.71418 0.71422 0.71422 0 0 1-0.71418-0.71418 0.71422 0.71422 0 0 1 0.039275-0.23203l-1.9885-1.1323a0.54206 0.54206 0 0 1-0.35967 0.13643 0.54206 0.54206 0 0 1-0.5421-0.5421 0.54206 0.54206 0 0 1 0.5421-0.5421 0.54206 0.54206 0 0 1 0.35554 0.13281l1.0563-0.94466a0.96903 0.96903 0 0 1-0.15452-0.52401 0.96903 0.96903 0 0 1 0.96895-0.96895z" fill="#fff" stroke-width=".99988"/>
</svg>
