<?xml version="1.0" encoding="UTF-8" standalone="no"?>
<svg
   xmlns:dc="http://purl.org/dc/elements/1.1/"
   xmlns:cc="http://creativecommons.org/ns#"
   xmlns:rdf="http://www.w3.org/1999/02/22-rdf-syntax-ns#"
   xmlns:svg="http://www.w3.org/2000/svg"
   xmlns="http://www.w3.org/2000/svg"
   xmlns:sodipodi="http://sodipodi.sourceforge.net/DTD/sodipodi-0.dtd"
   xmlns:inkscape="http://www.inkscape.org/namespaces/inkscape"
   width="104.21091"
   height="24.000755"
   version="1.1"
   viewBox="0 0 27.572263 6.3501998"
   id="svg26"
   sodipodi:docname="logo_white_full.svg"
   inkscape:version="1.0.2-2 (e86c870879, 2021-01-15)">
  <metadata
     id="metadata32">
    <rdf:RDF>
      <cc:Work
         rdf:about="">
        <dc:format>image/svg+xml</dc:format>
        <dc:type
           rdf:resource="http://purl.org/dc/dcmitype/StillImage" />
        <dc:title></dc:title>
      </cc:Work>
    </rdf:RDF>
  </metadata>
  <defs
     id="defs30" />
  <sodipodi:namedview
     pagecolor="#ffffff"
     bordercolor="#666666"
     borderopacity="1"
     objecttolerance="10"
     gridtolerance="10"
     guidetolerance="10"
     inkscape:pageopacity="0"
     inkscape:pageshadow="2"
     inkscape:window-width="1708"
     inkscape:window-height="897"
     id="namedview28"
     showgrid="false"
     fit-margin-top="0"
     fit-margin-left="0"
     fit-margin-right="0"
     fit-margin-bottom="0"
     inkscape:zoom="2.5078465"
     inkscape:cx="4.2753791"
     inkscape:cy="11.984679"
     inkscape:window-x="0"
     inkscape:window-y="0"
     inkscape:window-maximized="0"
     inkscape:current-layer="svg26" />
  <path
     d="M 3.174955,0 A 3.175,3.175 0 0 0 -1.4502431e-4,3.1751 3.175,3.175 0 0 0 3.174955,6.3502 3.175,3.175 0 0 0 6.350055,3.1751 3.175,3.175 0 0 0 3.174955,0 Z m 0.54106,0.339 A 0.96903,0.96903 0 0 1 4.684965,1.30795 0.96903,0.96903 0 0 1 3.716015,2.2769 0.96903,0.96903 0 0 1 3.019405,1.98131 l -1.0444,0.96275 A 0.54206,0.54206 0 0 1 2.03185,3.18591 0.54206,0.54206 0 0 1 1.974488,3.42776 l 1.9488,1.126 A 0.71422,0.71422 0 0 1 4.512928,4.24163 0.71422,0.71422 0 0 1 5.227108,4.95581 0.71422,0.71422 0 0 1 4.512928,5.66999 0.71422,0.71422 0 0 1 3.798748,4.95581 0.71422,0.71422 0 0 1 3.838023,4.72378 l -1.9885,-1.1323 A 0.54206,0.54206 0 0 1 1.489853,3.72791 0.54206,0.54206 0 0 1 0.94775298,3.18581 0.54206,0.54206 0 0 1 1.489853,2.64371 0.54206,0.54206 0 0 1 1.845393,2.77652 l 1.0563,-0.94466 A 0.96903,0.96903 0 0 1 2.747173,1.30785 0.96903,0.96903 0 0 1 3.716123,0.3389 Z"
     fill="#ffffff"
     stroke-width="0.99988"
     id="path2" />
  <g
     transform="matrix(1.1665932,0,0,1.1665932,-0.90875405,-11.13775)"
     aria-label="KineticLab"
     id="g47"
     style="fill:#ffffff;fill-opacity:1">
    <path
       d="m 7.0073,13.795 v -3.048 h 0.56303 v 1.2404 H 7.90156 L 8.35831,10.747 h 0.6096 v 0.16087 l -0.55835,1.3631 0.56258,1.3631 v 0.16087 H 8.35831 L 7.90156,12.55454 H 7.57033 v 1.2404 z"
       id="path27"
       style="fill:#ffffff;fill-opacity:1" />
    <path
       d="m 9.3546,13.795 v -2.0461 h 0.46214 v 2.0461 z m 0,-2.2507 v -0.46567 h 0.46214 v 0.46567 z"
       id="path29"
       style="fill:#ffffff;fill-opacity:1" />
    <path
       d="m 10.226,13.795 v -2.0461 h 1.2402 c 0.08937,0 0.17051,0.02234 0.24342,0.06703 0.07526,0.04469 0.13406,0.10348 0.17639,0.17639 0.04469,0.07291 0.06703,0.15405 0.06703,0.24342 v 1.5593 H 11.4909 v -1.5416 c 0,-0.01176 -0.0047,-0.02117 -0.01411,-0.02822 -0.0071,-0.0094 -0.01646,-0.01411 -0.02822,-0.01411 h -0.71813 c -0.01176,0 -0.02234,0.0047 -0.03175,0.01411 -0.0071,0.0071 -0.01058,0.01646 -0.01058,0.02822 v 1.5416 z"
       id="path31"
       style="fill:#ffffff;fill-opacity:1" />
    <path
       d="m 12.733,13.795 c -0.08937,0 -0.17051,-0.02234 -0.24342,-0.06703 -0.07291,-0.04469 -0.1317,-0.10348 -0.17639,-0.17639 -0.04469,-0.07291 -0.06703,-0.15405 -0.06703,-0.24342 v -1.0724 c 0,-0.08937 0.02234,-0.17051 0.06703,-0.24342 0.04469,-0.07291 0.10348,-0.1317 0.17639,-0.17639 0.07291,-0.04469 0.15405,-0.06703 0.24342,-0.06703 h 0.7367 c 0.08937,0 0.17051,0.02234 0.24342,0.06703 0.07526,0.04469 0.13406,0.10348 0.17639,0.17639 0.04469,0.07291 0.06703,0.15405 0.06703,0.24342 v 0.76906 h -1.2482 v 0.28575 c 0,0.01176 0.0035,0.02234 0.01058,0.03175 0.0094,0.0071 0.01999,0.01058 0.03175,0.01058 h 1.2059 v 0.46214 h -1.2235 z m -0.0247,-1.2065 h 0.78609 v -0.33514 c 0,-0.01176 -0.0047,-0.02117 -0.01411,-0.02822 -0.0071,-0.0094 -0.01646,-0.01411 -0.02822,-0.01411 h -0.70142 c -0.01176,0 -0.02234,0.0047 -0.03175,0.01411 -0.0071,0.0071 -0.01058,0.01646 -0.01058,0.02822 z"
       id="path33"
       style="fill:#ffffff;fill-opacity:1" />
    <path
       d="m 14.813,13.795 c -0.08937,0 -0.17051,-0.02234 -0.24342,-0.06703 -0.07291,-0.04469 -0.1317,-0.10348 -0.17639,-0.17639 -0.04469,-0.07291 -0.06703,-0.15405 -0.06703,-0.24342 v -2.1872 h 0.46214 v 0.62794 h 0.79728 v 0.46214 H 14.7883 v 1.0795 c 0,0.01176 0.0035,0.02234 0.01058,0.03175 0.0094,0.0071 0.01999,0.01058 0.03175,0.01058 h 0.75494 v 0.46214 h -0.77258 z"
       id="path35"
       style="fill:#ffffff;fill-opacity:1" />
    <path
       d="m 15.875,13.795 v -2.0461 h 0.46214 v 2.0461 z m 0,-2.2507 v -0.46567 h 0.46214 v 0.46567 z"
       id="path37"
       style="fill:#ffffff;fill-opacity:1" />
    <path
       d="m 17.149,13.795 c -0.08937,0 -0.17051,-0.02234 -0.24342,-0.06703 -0.07291,-0.04469 -0.1317,-0.10348 -0.17639,-0.17639 -0.04469,-0.07291 -0.06703,-0.15405 -0.06703,-0.24342 v -1.0724 c 0,-0.08937 0.02234,-0.17051 0.06703,-0.24342 0.04469,-0.07291 0.10348,-0.1317 0.17639,-0.17639 0.07291,-0.04469 0.15405,-0.06703 0.24342,-0.06703 h 1.22 v 0.46214 h -1.2024 c -0.01176,0 -0.02234,0.0047 -0.03175,0.01411 -0.0071,0.0071 -0.01058,0.01646 -0.01058,0.02822 v 1.0372 c 0,0.01176 0.0035,0.02234 0.01058,0.03175 0.0094,0.0071 0.01999,0.01058 0.03175,0.01058 h 1.2059 v 0.46214 H 17.149 Z"
       id="path39"
       style="fill:#ffffff;fill-opacity:1" />
    <path
       d="m 18.808,13.795 v -3.0522 h 0.5588 v 2.4892 h 1.1421 v 0.56303 z"
       id="path41"
       style="fill:#ffffff;fill-opacity:1" />
    <path
       d="m 21.187,13.795 c -0.08937,0 -0.17169,-0.02234 -0.24694,-0.06703 -0.07291,-0.04469 -0.1317,-0.10348 -0.17639,-0.17639 -0.04233,-0.07291 -0.0635,-0.15405 -0.0635,-0.24342 V 12.5391 h 1.2732 v -0.28575 c 0,-0.01176 -0.0047,-0.02117 -0.01411,-0.02822 -0.0071,-0.0094 -0.01646,-0.01411 -0.02822,-0.01411 h -1.2308 v -0.46214 h 1.2485 c 0.08937,0 0.17051,0.02234 0.24342,0.06703 0.07526,0.04469 0.13406,0.10348 0.17639,0.17639 0.04469,0.07291 0.06703,0.15405 0.06703,0.24342 v 1.5593 z m 0.01764,-0.46214 h 0.76871 v -0.37747 h -0.81104 v 0.33514 c 0,0.01176 0.0035,0.02234 0.01058,0.03175 0.0094,0.0071 0.02347,0.0023 0.03175,0.01058 z"
       id="path43"
       style="fill:#ffffff;fill-opacity:1" />
    <path
       d="m 22.714,13.795 v -2.7164 h 0.46214 v 0.67028 h 0.75091 c 0.08937,0 0.17051,0.02234 0.24342,0.06703 0.07526,0.04469 0.13406,0.10348 0.17639,0.17639 0.04469,0.07291 0.06703,0.15405 0.06703,0.24342 v 1.0724 c 0,0.08937 -0.02234,0.17051 -0.06703,0.24342 -0.04233,0.07291 -0.10113,0.1317 -0.17639,0.17639 -0.07291,0.04469 -0.15405,0.06703 -0.24342,0.06703 z m 0.50447,-0.46214 h 0.69094 c 0.01176,0 0.02117,-0.0035 0.02822,-0.01058 0.0094,-0.0094 0.01411,-0.01999 0.01411,-0.03175 v -1.0372 c 0,-0.01176 -0.0047,-0.02117 -0.01411,-0.02822 -0.0071,-0.0094 -0.01646,-0.01411 -0.02822,-0.01411 h -0.69094 c -0.01176,0 -0.02234,0.0047 -0.03175,0.01411 -0.0071,0.0071 -0.01058,0.01646 -0.01058,0.02822 v 1.0372 c 0,0.01176 0.0035,0.02234 0.01058,0.03175 0.0094,0.0071 0.01999,0.01058 0.03175,0.01058 z"
       id="path45"
       style="fill:#ffffff;fill-opacity:1" />
  </g>
</svg>
